<?xml version="1.0" standalone="no"?>
<!DOCTYPE svg PUBLIC "-//W3C//DTD SVG 20010904//EN"
 "http://www.w3.org/TR/2001/REC-SVG-20010904/DTD/svg10.dtd">
<svg version="1.0" xmlns="http://www.w3.org/2000/svg"
 width="180.000000pt" height="45.000000pt" viewBox="0 0 1852.000000 492.000000"
 preserveAspectRatio="xMidYMid meet">

<g transform="translate(0.000000,600.000000) scale(0.100000,-0.100000)"
fill="#014e71" stroke="none">
<path d="M2425 4204 c-173 -43 -251 -157 -300 -438 -17 -102 -20 -272 -4 -331
14 -55 30 -95 38 -95 3 1 31 39 61 86 69 109 162 196 268 254 139 75 231 138
251 171 63 104 12 278 -96 330 -46 22 -169 35 -218 23z"/>
<path d="M1579 3667 c-52 -19 -97 -54 -114 -87 -22 -42 -20 -132 4 -161 17
-22 26 -23 217 -30 212 -8 235 -12 273 -41 32 -24 41 -23 41 8 0 75 -132 247
-227 294 -57 29 -142 36 -194 17z"/>
<path d="M2650 3537 c-107 -37 -270 -160 -270 -204 0 -25 24 -33 101 -33 86 0
170 -19 212 -47 31 -21 49 -26 105 -26 113 -1 172 44 172 132 0 75 -57 154
-132 185 -51 22 -111 20 -188 -7z"/>
<path d="M11338 3364 c-27 -5 -28 -8 -28 -62 0 -168 -34 -857 -66 -1359 l-7
-103 226 0 226 0 5 53 c3 28 8 120 11 202 14 386 37 850 51 1043 8 118 14 215
12 217 -6 6 -402 14 -430 9z"/>
<path d="M8367 3068 c-7 -310 -26 -674 -53 -1001 -9 -109 -13 -205 -10 -213 5
-12 39 -14 223 -12 l218 3 12 211 c11 196 28 339 53 425 46 163 274 229 357
103 25 -39 28 -179 9 -404 -9 -102 -19 -220 -22 -262 l-7 -78 227 0 c173 0
228 3 231 13 8 25 40 627 40 752 0 160 -13 209 -70 273 -81 90 -196 132 -367
132 -163 0 -246 -27 -349 -115 l-54 -46 -3 40 c-2 22 4 127 12 234 9 106 16
203 16 215 l0 22 -228 0 -229 0 -6 -292z"/>
<path d="M14760 3333 c0 -161 -27 -740 -56 -1201 -8 -128 -14 -247 -14 -263
l0 -29 224 0 225 0 5 53 c3 28 8 129 11 222 10 281 45 973 55 1085 5 58 9 117
10 133 l0 27 -230 0 -230 0 0 -27z"/>
<path d="M4050 3293 c-28 -25 -34 -38 -38 -86 -11 -140 66 -282 221 -402 l39
-30 -50 -71 c-81 -115 -160 -173 -295 -219 -185 -62 -483 -44 -650 40 -40 20
-166 102 -282 182 -269 187 -347 236 -470 294 -221 105 -383 134 -770 134
-295 0 -340 -6 -399 -48 -51 -36 -60 -74 -59 -252 2 -338 64 -587 201 -805 72
-113 135 -186 221 -254 182 -145 397 -241 693 -306 92 -21 208 -27 208 -11 0
19 -109 61 -251 96 -298 75 -511 187 -684 360 -100 100 -143 160 -209 291 -82
165 -111 305 -111 534 1 182 9 220 48 220 78 0 286 -205 522 -515 131 -172
180 -231 287 -347 90 -98 244 -231 262 -225 5 2 17 28 27 57 20 61 49 91 79
83 32 -8 69 -82 105 -210 58 -207 101 -297 191 -406 118 -142 357 -253 528
-245 75 4 75 -3 -6 173 -64 137 -83 188 -99 270 -42 208 -21 382 47 399 33 9
73 -10 79 -36 3 -13 9 -72 13 -133 l7 -110 28 -3 c15 -2 87 11 160 28 142 34
185 34 167 0 -15 -27 -68 -60 -170 -104 -110 -47 -161 -81 -154 -101 20 -52
268 61 475 217 132 100 255 233 366 398 67 100 96 159 159 325 71 184 87 206
199 268 118 65 153 91 209 157 88 103 117 200 81 270 -30 58 -65 62 -245 25
-143 -29 -245 -33 -271 -9 -9 8 -54 22 -100 30 -46 8 -91 20 -100 27 -9 6 -33
25 -53 41 -23 18 -52 30 -80 33 -37 5 -48 1 -76 -24z m-1858 -511 c27 -23 34
-79 13 -102 -33 -37 -119 -13 -131 36 -8 32 22 76 57 85 26 6 35 4 61 -19z"/>
<path d="M10227 2985 c-86 -13 -172 -28 -190 -34 l-32 -11 -23 -132 c-12 -72
-21 -133 -19 -134 1 -1 54 13 117 32 224 68 415 80 466 29 33 -33 32 -79 -3
-114 -29 -29 -67 -41 -303 -96 -162 -38 -250 -76 -319 -140 -104 -97 -140
-203 -107 -314 43 -147 139 -227 299 -252 84 -13 261 -6 282 11 15 13 89 229
81 237 -2 2 -31 -1 -63 -7 -101 -20 -173 13 -173 80 0 26 22 66 50 87 17 14
247 93 269 93 12 0 13 -24 8 -147 -4 -82 -10 -190 -13 -241 l-7 -92 219 2 219
3 6 105 c20 315 34 629 34 730 0 108 -2 118 -28 163 -36 62 -103 110 -192 137
-110 35 -367 37 -578 5z"/>
<path d="M12418 3000 c-201 -36 -345 -141 -426 -310 -57 -120 -76 -216 -69
-349 9 -170 57 -281 163 -380 73 -69 146 -106 252 -129 151 -32 614 -14 654
26 10 10 63 311 56 317 -2 3 -58 -9 -124 -26 -98 -26 -140 -32 -239 -33 -159
-1 -234 23 -287 94 -19 27 -39 122 -29 139 4 6 145 11 384 13 323 3 379 5 387
18 15 24 12 209 -5 275 -29 111 -97 208 -182 263 -27 17 -84 43 -128 58 -69
23 -100 27 -220 30 -77 2 -161 -1 -187 -6z m231 -278 c50 -25 74 -63 79 -127
l4 -55 -176 0 -176 0 0 23 c0 45 49 126 93 152 51 30 125 33 176 7z"/>
<path d="M13777 3000 c-106 -12 -311 -49 -318 -58 -7 -8 -52 -263 -47 -267 2
-2 56 12 120 30 176 51 271 68 352 63 39 -3 81 -11 93 -19 29 -18 46 -59 37
-93 -13 -53 -38 -63 -336 -134 -214 -51 -332 -123 -395 -243 -58 -112 -27
-272 70 -367 54 -52 115 -79 213 -93 95 -13 262 -5 281 14 14 14 85 228 78
235 -2 3 -25 -1 -51 -7 -56 -14 -108 -7 -152 19 -27 17 -32 26 -32 59 0 64 34
91 180 139 69 23 131 42 139 42 14 0 13 -96 -5 -378 l-7 -102 219 2 219 3 7
135 c4 74 13 232 20 350 17 285 17 435 -1 480 -35 84 -112 145 -225 177 -62
18 -347 26 -459 13z"/>
<path d="M6187 2983 c-16 -2 -27 -10 -25 -16 2 -7 58 -176 125 -377 67 -201
149 -452 183 -557 l62 -193 204 0 c194 0 204 1 214 20 10 18 68 179 186 518
20 56 40 102 45 102 4 0 11 -17 15 -37 25 -141 136 -587 148 -595 6 -5 103 -7
216 -5 l204 2 49 115 c26 63 70 167 97 230 63 150 231 547 287 679 24 57 41
106 38 110 -11 10 -144 12 -280 4 l-130 -8 -65 -190 c-160 -466 -164 -477
-172 -458 -4 10 -41 161 -83 335 l-77 317 -52 6 c-29 4 -129 3 -221 -2 l-169
-8 -106 -320 c-128 -387 -116 -354 -123 -335 -3 8 -42 155 -87 325 -45 171
-88 317 -96 325 -12 12 -48 15 -187 16 -95 1 -185 0 -200 -3z"/>
<path d="M1665 2341 c-16 -51 91 -203 184 -263 100 -63 95 -15 -10 99 -44 49
-91 108 -103 133 -24 51 -60 66 -71 31z"/>
<path d="M2000 1379 c0 -32 56 -130 116 -204 83 -100 174 -158 195 -124 13 21
11 207 -3 232 -18 35 -36 44 -150 82 -127 41 -158 44 -158 14z"/>
</g>
</svg>
